<svg width="520" height="320" viewBox="0 0 520 320" fill="none" xmlns="http://www.w3.org/2000/svg" role="img" aria-labelledby="title desc">
  <title id="title">Bradesco</title>
  <desc id="desc">Logo estilizado do Bradesco em branco sobre fundo vermelho.</desc>
  <defs>
    <linearGradient id="bg" x1="0" y1="0" x2="520" y2="320" gradientUnits="userSpaceOnUse">
      <stop stop-color="#E50031"/>
      <stop offset="0.58" stop-color="#C51155"/>
      <stop offset="1" stop-color="#8A123F"/>
    </linearGradient>
    <linearGradient id="shine" x1="20" y1="0" x2="480" y2="320" gradientUnits="userSpaceOnUse">
      <stop stop-color="white" stop-opacity="0.22"/>
      <stop offset="1" stop-color="white" stop-opacity="0"/>
    </linearGradient>
  </defs>
  <rect width="520" height="320" rx="42" fill="url(#bg)"/>
  <path d="M0 78C82 30 187 12 316 22C399 28 468 50 520 83V0H0V78Z" fill="url(#shine)"/>
  <path d="M182 122C205 58 287 41 345 80C362 92 375 108 385 127" stroke="white" stroke-width="22" stroke-linecap="round"/>
  <path d="M154 149C218 131 333 124 374 164C399 189 389 221 355 238" stroke="white" stroke-width="18" stroke-linecap="round"/>
  <path d="M225 178C205 155 207 116 232 91" stroke="white" stroke-width="20" stroke-linecap="round"/>
  <path d="M247 206V254" stroke="white" stroke-width="22" stroke-linecap="round"/>
  <path d="M283 194V254" stroke="white" stroke-width="22" stroke-linecap="round"/>
  <text x="260" y="295" text-anchor="middle" fill="white" font-family="Arial, Helvetica, sans-serif" font-size="66" font-weight="800">bradesco</text>
</svg>
